<svg width="170" height="172" xmlns="http://www.w3.org/2000/svg" xmlns:xlink="http://www.w3.org/1999/xlink" xml:space="preserve" overflow="hidden"><defs><clipPath id="clip0"><rect x="521" y="383" width="170" height="172"/></clipPath><clipPath id="clip1"><rect x="521" y="405" width="170" height="124"/></clipPath></defs><g clip-path="url(#clip0)" transform="translate(-521 -383)"><g clip-path="url(#clip1)"><g><path d="M455.53 85.8452C457.056 86.6753 457.17 89.8194 455.551 90.4731 455.261 88.9374 455.25 87.3913 455.53 85.8452ZM91.5211 96.367C87.9205 96.782 84.3198 96.8028 80.7191 96.4396 81.0616 95.7236 81.6427 95.3916 82.4624 95.4227 84.3924 95.7963 90.4212 94.603 91.5211 96.367Z" fill="#959595" fill-rule="evenodd" fill-opacity="0.278" transform="matrix(1 0 0 1.00257 521 405.956)"/><path d="M120.7 96.4189C118.116 96.8132 115.543 96.8028 112.969 96.3981 113.125 95.9934 113.405 95.7132 113.82 95.5472 115.221 95.6095 120.192 94.6756 120.7 96.4189Z" fill="#919291" fill-rule="evenodd" fill-opacity="0.282" transform="matrix(1 0 0 1.00257 521 405.956)"/><path d="M8.5399 58.1813C35.7161 41.2364 62.9337 24.3849 90.2033 7.60601 91.0749 7.35697 91.9569 7.24283 92.8597 7.27396 116.031 7.27396 139.201 7.29471 162.383 7.32584 163.617 7.49187 163.877 8.08333 163.171 9.10023 156.094 14.164 148.914 19.0928 141.629 23.8557 126.76 24.1255 111.89 24.1981 97.0103 24.084 96.1387 24.0528 95.2878 24.1773 94.4577 24.4679 70.7577 39.213 47.0161 53.8854 23.2435 68.506 22.3303 68.589 21.4898 68.3814 20.722 67.8626 18.4391 65.8392 9.40115 60.5575 8.5399 58.1813ZM197.507 67.4579C199.365 36.5047 235.942 24.6235 255.958 47.5557 256.249 48.334 256.135 49.0603 255.637 49.7244 254.173 50.5234 250.21 54.9957 248.653 54.6221 246.401 52.4223 243.932 50.4715 241.255 48.7594 209.316 32.8106 192.952 86.2602 229.84 90.0684 236.959 90.1307 242.894 87.5158 247.636 82.2134 248.197 81.7568 248.84 81.5804 249.556 81.6945 251.642 83.1265 253.624 84.6934 255.522 86.3951 256.093 87.0281 256.207 87.7337 255.865 88.5223 236.253 111.091 197.974 98.5357 197.507 67.4579ZM23.2227 84.0604C41.2779 72.3141 59.4784 60.7858 77.8137 49.4754 84.766 48.3962 106.152 49.3197 114.63 48.9669 116.363 49.2678 116.518 49.9942 115.107 51.1356 110.936 53.7194 97.5084 64.8119 93.9285 65.6835 91.0646 66.0778 84.7349 65.0817 82.3794 66.2854 67.5721 75.728 52.6817 85.0358 37.7084 94.2087 37.1169 94.3643 36.5462 94.3332 35.9755 94.1153 33.7341 92.5069 23.5859 86.1565 23.2227 84.0604ZM260.14 86.1253C260.327 65.3411 290.035 73.9848 292.235 69.8964 292.857 56.6974 276.089 60.4226 269.178 65.3204 266.864 66.275 263.813 61.5018 262.962 59.8 270.133 50.6894 287.015 49.8489 296.209 56.1371 305.724 63.7016 300.525 85.1292 301.895 95.9934 301.812 98.2451 300.629 99.1271 298.336 98.6394 296.665 98.7017 294.995 98.6083 293.355 98.3489 292.753 97.1867 292.276 95.9934 291.913 94.7482 290.201 95.6199 288.53 96.5745 286.891 97.6122 276.493 102.074 261.105 99.7186 260.14 86.1253ZM460.47 75.7488C461.144 52.1525 490.562 43.4777 504.539 61.5744 504.995 62.1659 505.12 62.8092 504.933 63.5148 503.377 64.7704 498.801 68.8276 496.881 67.0844 479.853 47.0473 456.599 80.8748 481.119 89.9854 487.552 91.49 492.834 89.6741 496.974 84.5585 498.894 82.6907 502.619 86.9658 504.373 87.6922 504.912 88.1072 505.12 88.6364 505.006 89.3005 492.326 108.103 461.009 100.352 460.47 75.7488ZM269.956 86.0734C273.048 96.6368 293.604 91.2928 292.287 79.6504 291.187 77.5958 278.455 78.9033 275.975 79.2457 272.198 80.0032 270.195 82.286 269.956 86.0734ZM80.7191 96.4396C84.3198 96.8028 87.9205 96.782 91.5211 96.367 98.6706 96.4396 105.82 96.45 112.969 96.3981 115.543 96.8028 118.116 96.8132 120.7 96.4189 125.971 96.4396 131.232 96.4396 136.493 96.4085 137.385 96.4396 137.738 96.8754 137.562 97.7159 130.205 103.184 122.775 108.559 115.263 113.851 114.09 114.516 112.845 114.796 111.496 114.713 88.3459 114.671 65.1855 114.682 42.0354 114.744 40.8836 114.858 39.7837 114.682 38.7253 114.246 38.6215 113.592 38.8602 113.094 39.462 112.741 44.8059 109.597 61.1386 97.3943 65.8807 96.4189 70.8199 96.3981 75.7695 96.4085 80.7191 96.4396Z" fill="#020202" fill-rule="evenodd" fill-opacity="0.988" transform="matrix(1 0 0 1.00257 521 405.956)"/><path d="M307.166 75.7488C307.436 55.5041 328.708 45.3247 345.217 56.5107 345.632 56.7389 346.006 56.6767 346.317 56.3239 346.535 49.1952 346.68 42.0665 346.774 34.9275 347.033 34.3671 347.479 34.0351 348.092 33.9209 349.814 33.9209 355.137 32.9663 356.082 34.7095 356.341 53.4081 356.424 72.0962 356.351 90.7948 356.372 93.2021 356.216 95.5784 355.895 97.9235 354.847 99.1686 349.762 98.5357 348.164 98.5045 345.809 98.2866 347.562 95.6717 345.964 94.5615 343.785 95.7444 341.575 96.9169 339.334 98.0687 323.011 103.848 307.229 93.1399 307.166 75.7488ZM361.27 75.7488C362.038 47.4934 400.462 43.4155 407.165 68.7861 407.684 71.1001 408.67 77.8137 406.916 79.4532 395.959 79.7541 385.001 79.8475 374.033 79.7334 371.709 79.6919 372.134 81.9643 372.85 83.3652 377.302 91.3862 386.547 92.7456 394.361 88.8855 395.782 88.5431 398.636 84.5896 400.12 86.0631 401.354 87.6507 405.837 90.0477 404.166 92.4135 388.135 107.159 361.82 98.8677 361.27 75.7488ZM455.53 85.8452C455.25 87.3913 455.261 88.9374 455.551 90.4731 455.53 91.9985 456.174 97.6122 454.814 98.3904 452.469 98.6394 450.114 98.7121 447.748 98.6083 446.295 98.3904 445.641 97.5188 445.797 96.0142 444.002 85.6065 452.065 59.3123 434.248 61.1386 426.497 62.6328 422.533 67.323 422.357 75.2299 422.398 82.7529 422.284 90.2656 421.993 97.7678 420.582 99.2932 415.612 98.5564 413.63 98.4527 412.852 97.8404 412.488 97.0311 412.551 96.0142 412.623 82.5039 412.634 68.9936 412.571 55.4834 412.52 54.4872 412.883 53.6882 413.661 53.0968 416.307 52.8581 418.953 52.8893 421.589 53.159 423.093 54.4976 421.319 56.7182 422.938 57.8181 425.013 56.189 427.234 54.7674 429.62 53.5326 443.794 48.5311 455.862 55.5041 455.655 71.069 455.717 75.9874 455.676 80.9163 455.53 85.8452ZM507.755 75.7488C508.243 41.5581 560.603 46.3832 553.744 79.0381 553.392 79.4117 552.966 79.6089 552.447 79.6504 542.102 79.7645 531.756 79.7956 521.401 79.723 515.009 79.4325 521.65 87.412 523.995 88.6157 529.609 91.6664 535.243 91.7287 540.929 88.8025 542.444 87.7752 543.907 86.696 545.319 85.5754 546.761 85.5546 549.542 89.1345 550.683 90.0995 551.129 90.9089 551.109 91.6975 550.611 92.4861 534.672 107.096 508.451 98.8885 507.755 75.7488ZM372.03 70.7058C372.528 71.3699 373.203 71.7123 374.033 71.7538 381.328 71.7331 388.612 71.7227 395.907 71.7227 399.082 71.7953 396.54 67.5721 395.876 66.3165 388.986 57.1955 374.863 59.6651 372.03 70.7058ZM518.661 70.5916C518.952 71.3491 519.512 71.7434 520.332 71.7642 527.274 71.7538 534.216 71.7538 541.158 71.7642 544.364 72.3453 544.354 69.5436 543.119 67.5098 537.246 57.2682 521.546 58.9492 518.661 70.5916ZM317.294 75.7488C316.962 92.8182 341.046 96.9169 346.276 79.2145 350.54 57.8492 318.031 53.8128 317.294 75.7488Z" fill="#030303" fill-rule="evenodd" fill-opacity="0.984" transform="matrix(1 0 0 1.00257 521 405.956)"/><path d="M372.03 70.7058C374.863 59.6651 388.986 57.1955 395.876 66.3165 396.54 67.5721 399.082 71.7953 395.907 71.7227 388.612 71.7227 381.328 71.7331 374.033 71.7538 373.203 71.7123 372.528 71.3699 372.03 70.7058ZM317.294 75.7488C318.031 53.8128 350.54 57.8492 346.276 79.2145 341.046 96.9169 316.962 92.8182 317.294 75.7488Z" fill="#040404" fill-rule="evenodd" fill-opacity="0.012" transform="matrix(1 0 0 1.00257 521 405.956)"/><path d="M356.538 70.602C357.794 65.725 357.534 60.4122 356.6 55.5041 357.119 51.4469 357.347 47.3586 357.306 43.2494 357.015 42.1599 356.829 41.0496 356.746 39.9393 357.088 38.113 357.368 36.3075 357.596 34.502 357.825 36.6396 357.96 38.7979 357.991 40.9874 357.97 58.9699 357.97 76.9628 358.001 94.9558 357.949 95.4746 358.188 99.2724 356.891 98.2036 356.082 95.7651 357.067 93.2125 357.316 90.7844 357.607 87.2667 357.337 83.801 356.528 80.3871 356.694 78.9966 356.974 77.6269 357.347 76.278 356.87 74.4206 356.6 72.5217 356.538 70.602Z" fill="#4E4E4E" fill-rule="evenodd" fill-opacity="0.067" transform="matrix(1 0 0 1.00257 521 405.956)"/><path d="M269.956 86.0734C270.195 82.286 272.198 80.0032 275.975 79.2457 278.455 78.9033 291.187 77.5958 292.287 79.6504 293.604 91.2928 273.048 96.6368 269.956 86.0734Z" fill="#0C0C0C" fill-rule="evenodd" fill-opacity="0.016" transform="matrix(1 0 0 1.00257 521 405.956)"/><path d="M518.661 70.5916C521.546 58.9492 537.246 57.2682 543.119 67.5098 544.354 69.5436 544.364 72.3453 541.158 71.7642 534.216 71.7538 527.274 71.7538 520.332 71.7642 519.512 71.7434 518.952 71.3491 518.661 70.5916Z" fill="#070707" fill-rule="evenodd" fill-opacity="0.02" transform="matrix(1 0 0 1.00257 521 405.956)"/></g></g></g></svg>