<svg width="541" height="118" xmlns="http://www.w3.org/2000/svg" xmlns:xlink="http://www.w3.org/1999/xlink" xml:space="preserve" overflow="hidden"><g transform="translate(-355 -183)"><path d="M794 265.73C795.47 266.53 795.58 269.56 794.02 270.19 793.74 268.71 793.73 267.22 794 265.73ZM443.2 275.87C439.73 276.27 436.26 276.29 432.79 275.94 433.12 275.25 433.68 274.93 434.47 274.96 436.33 275.32 442.14 274.17 443.2 275.87Z" fill="#959595" fill-rule="evenodd" fill-opacity="0.278"/><path d="M471.32 275.92C468.83 276.3 466.35 276.29 463.87 275.9 464.02 275.51 464.29 275.24 464.69 275.08 466.04 275.14 470.83 274.24 471.32 275.92Z" fill="#919291" fill-rule="evenodd" fill-opacity="0.282"/><path d="M363.23 239.07C389.42 222.74 415.65 206.5 441.93 190.33 442.77 190.09 443.62 189.98 444.49 190.01 466.82 190.01 489.15 190.03 511.49 190.06 512.68 190.22 512.93 190.79 512.25 191.77 505.43 196.65 498.51 201.4 491.49 205.99 477.16 206.25 462.83 206.32 448.49 206.21 447.65 206.18 446.83 206.3 446.03 206.58 423.19 220.79 400.31 234.93 377.4 249.02 376.52 249.1 375.71 248.9 374.97 248.4 372.77 246.45 364.06 241.36 363.23 239.07ZM545.34 248.01C547.13 218.18 582.38 206.73 601.67 228.83 601.95 229.58 601.84 230.28 601.36 230.92 599.95 231.69 596.13 236 594.63 235.64 592.46 233.52 590.08 231.64 587.5 229.99 556.72 214.62 540.95 266.13 576.5 269.8 583.36 269.86 589.08 267.34 593.65 262.23 594.19 261.79 594.81 261.62 595.5 261.73 597.51 263.11 599.42 264.62 601.25 266.26 601.8 266.87 601.91 267.55 601.58 268.31 582.68 290.06 545.79 277.96 545.34 248.01ZM377.38 264.01C394.78 252.69 412.32 241.58 429.99 230.68 436.69 229.64 457.3 230.53 465.47 230.19 467.14 230.48 467.29 231.18 465.93 232.28 461.91 234.77 448.97 245.46 445.52 246.3 442.76 246.68 436.66 245.72 434.39 246.88 420.12 255.98 405.77 264.95 391.34 273.79 390.77 273.94 390.22 273.91 389.67 273.7 387.51 272.15 377.73 266.03 377.38 264.01ZM605.7 266C605.88 245.97 634.51 254.3 636.63 250.36 637.23 237.64 621.07 241.23 614.41 245.95 612.18 246.87 609.24 242.27 608.42 240.63 615.33 231.85 631.6 231.04 640.46 237.1 649.63 244.39 644.62 265.04 645.94 275.51 645.86 277.68 644.72 278.53 642.51 278.06 640.9 278.12 639.29 278.03 637.71 277.78 637.13 276.66 636.67 275.51 636.32 274.31 634.67 275.15 633.06 276.07 631.48 277.07 621.46 281.37 606.63 279.1 605.7 266ZM798.76 256C799.41 233.26 827.76 224.9 841.23 242.34 841.67 242.91 841.79 243.53 841.61 244.21 840.11 245.42 835.7 249.33 833.85 247.65 817.44 228.34 795.03 260.94 818.66 269.72 824.86 271.17 829.95 269.42 833.94 264.49 835.79 262.69 839.38 266.81 841.07 267.51 841.59 267.91 841.79 268.42 841.68 269.06 829.46 287.18 799.28 279.71 798.76 256ZM615.16 265.95C618.14 276.13 637.95 270.98 636.68 259.76 635.62 257.78 623.35 259.04 620.96 259.37 617.32 260.1 615.39 262.3 615.16 265.95ZM432.79 275.94C436.26 276.29 439.73 276.27 443.2 275.87 450.09 275.94 456.98 275.95 463.87 275.9 466.35 276.29 468.83 276.3 471.32 275.92 476.4 275.94 481.47 275.94 486.54 275.91 487.4 275.94 487.74 276.36 487.57 277.17 480.48 282.44 473.32 287.62 466.08 292.72 464.95 293.36 463.75 293.63 462.45 293.55 440.14 293.51 417.82 293.52 395.51 293.58 394.4 293.69 393.34 293.52 392.32 293.1 392.22 292.47 392.45 291.99 393.03 291.65 398.18 288.62 413.92 276.86 418.49 275.92 423.25 275.9 428.02 275.91 432.79 275.94Z" fill="#020202" fill-rule="evenodd" fill-opacity="0.988"/><path d="M651.02 256C651.28 236.49 671.78 226.68 687.69 237.46 688.09 237.68 688.45 237.62 688.75 237.28 688.96 230.41 689.1 223.54 689.19 216.66 689.44 216.12 689.87 215.8 690.46 215.69 692.12 215.69 697.25 214.77 698.16 216.45 698.41 234.47 698.49 252.48 698.42 270.5 698.44 272.82 698.29 275.11 697.98 277.37 696.97 278.57 692.07 277.96 690.53 277.93 688.26 277.72 689.95 275.2 688.41 274.13 686.31 275.27 684.18 276.4 682.02 277.51 666.29 283.08 651.08 272.76 651.02 256ZM703.16 256C703.9 228.77 740.93 224.84 747.39 249.29 747.89 251.52 748.84 257.99 747.15 259.57 736.59 259.86 726.03 259.95 715.46 259.84 713.22 259.8 713.63 261.99 714.32 263.34 718.61 271.07 727.52 272.38 735.05 268.66 736.42 268.33 739.17 264.52 740.6 265.94 741.79 267.47 746.11 269.78 744.5 272.06 729.05 286.27 703.69 278.28 703.16 256ZM794 265.73C793.73 267.22 793.74 268.71 794.02 270.19 794 271.66 794.62 277.07 793.31 277.82 791.05 278.06 788.78 278.13 786.5 278.03 785.1 277.82 784.47 276.98 784.62 275.53 782.89 265.5 790.66 240.16 773.49 241.92 766.02 243.36 762.2 247.88 762.03 255.5 762.07 262.75 761.96 269.99 761.68 277.22 760.32 278.69 755.53 277.98 753.62 277.88 752.87 277.29 752.52 276.51 752.58 275.53 752.65 262.51 752.66 249.49 752.6 236.47 752.55 235.51 752.9 234.74 753.65 234.17 756.2 233.94 758.75 233.97 761.29 234.23 762.74 235.52 761.03 237.66 762.59 238.72 764.59 237.15 766.73 235.78 769.03 234.59 782.69 229.77 794.32 236.49 794.12 251.49 794.18 256.23 794.14 260.98 794 265.73ZM844.33 256C844.8 223.05 895.26 227.7 888.65 259.17 888.31 259.53 887.9 259.72 887.4 259.76 877.43 259.87 867.46 259.9 857.48 259.83 851.32 259.55 857.72 267.24 859.98 268.4 865.39 271.34 870.82 271.4 876.3 268.58 877.76 267.59 879.17 266.55 880.53 265.47 881.92 265.45 884.6 268.9 885.7 269.83 886.13 270.61 886.11 271.37 885.63 272.13 870.27 286.21 845 278.3 844.33 256ZM713.53 251.14C714.01 251.78 714.66 252.11 715.46 252.15 722.49 252.13 729.51 252.12 736.54 252.12 739.6 252.19 737.15 248.12 736.51 246.91 729.87 238.12 716.26 240.5 713.53 251.14ZM854.84 251.03C855.12 251.76 855.66 252.14 856.45 252.16 863.14 252.15 869.83 252.15 876.52 252.16 879.61 252.72 879.6 250.02 878.41 248.06 872.75 238.19 857.62 239.81 854.84 251.03ZM660.78 256C660.46 272.45 683.67 276.4 688.71 259.34 692.82 238.75 661.49 234.86 660.78 256Z" fill="#030303" fill-rule="evenodd" fill-opacity="0.984"/><path d="M713.53 251.14C716.26 240.5 729.87 238.12 736.51 246.91 737.15 248.12 739.6 252.19 736.54 252.12 729.51 252.12 722.49 252.13 715.46 252.15 714.66 252.11 714.01 251.78 713.53 251.14ZM660.78 256C661.49 234.86 692.82 238.75 688.71 259.34 683.67 276.4 660.46 272.45 660.78 256Z" fill="#040404" fill-rule="evenodd" fill-opacity="0.012"/><path d="M698.6 251.04C699.81 246.34 699.56 241.22 698.66 236.49 699.16 232.58 699.38 228.64 699.34 224.68 699.06 223.63 698.88 222.56 698.8 221.49 699.13 219.73 699.4 217.99 699.62 216.25 699.84 218.31 699.97 220.39 700 222.5 699.98 239.83 699.98 257.17 700.01 274.51 699.96 275.01 700.19 278.67 698.94 277.64 698.16 275.29 699.11 272.83 699.35 270.49 699.63 267.1 699.37 263.76 698.59 260.47 698.75 259.13 699.02 257.81 699.38 256.51 698.92 254.72 698.66 252.89 698.6 251.04Z" fill="#4E4E4E" fill-rule="evenodd" fill-opacity="0.067"/><path d="M615.16 265.95C615.39 262.3 617.32 260.1 620.96 259.37 623.35 259.04 635.62 257.78 636.68 259.76 637.95 270.98 618.14 276.13 615.16 265.95Z" fill="#0C0C0C" fill-rule="evenodd" fill-opacity="0.016"/><path d="M854.84 251.03C857.62 239.81 872.75 238.19 878.41 248.06 879.6 250.02 879.61 252.72 876.52 252.16 869.83 252.15 863.14 252.15 856.45 252.16 855.66 252.14 855.12 251.76 854.84 251.03Z" fill="#070707" fill-rule="evenodd" fill-opacity="0.02"/></g></svg>